<?xml version="1.0" encoding="UTF-8" standalone="no"?>
<!-- Created with Inkscape (http://www.inkscape.org/) -->

<svg
   width="12.102209mm"
   height="12.033533mm"
   viewBox="0 0 12.10221 12.033533"
   version="1.1"
   id="svg5"
   inkscape:version="1.2.2 (b0a8486541, 2022-12-01)"
   sodipodi:docname="osbo.svg"
   inkscape:export-filename="osb.png"
   inkscape:export-xdpi="600.364"
   inkscape:export-ydpi="600.364"
   xmlns:inkscape="http://www.inkscape.org/namespaces/inkscape"
   xmlns:sodipodi="http://sodipodi.sourceforge.net/DTD/sodipodi-0.dtd"
   xmlns="http://www.w3.org/2000/svg"
   xmlns:svg="http://www.w3.org/2000/svg">
  <sodipodi:namedview
     id="namedview7"
     pagecolor="#505050"
     bordercolor="#eeeeee"
     borderopacity="1"
     inkscape:showpageshadow="0"
     inkscape:pageopacity="0"
     inkscape:pagecheckerboard="0"
     inkscape:deskcolor="#505050"
     inkscape:document-units="mm"
     showgrid="false"
     inkscape:zoom="1.9934986"
     inkscape:cx="-64.961169"
     inkscape:cy="40.882898"
     inkscape:window-width="1332"
     inkscape:window-height="694"
     inkscape:window-x="15"
     inkscape:window-y="35"
     inkscape:window-maximized="1"
     inkscape:current-layer="layer1"
     showguides="true" />
  <defs
     id="defs2" />
  <g
     inkscape:label="Layer 1"
     inkscape:groupmode="layer"
     id="layer1"
     style="display:inline"
     transform="translate(-160.50299,-61.919628)">
    <rect
       style="fill:#ffffff;stroke-width:0.0296477;stroke-miterlimit:10;stroke-dashoffset:39.9975;paint-order:stroke markers fill"
       id="rect377"
       width="12.102046"
       height="12.033533"
       x="160.50299"
       y="61.919628" />
  </g>
  <g
     inkscape:groupmode="layer"
     id="layer2"
     inkscape:label="Font"
     transform="translate(-160.50299,-61.919628)">
    <path
       d="m 166.4584,73.908428 q -2.4384,0 -4.191,-1.8034 -1.7526,-1.8288 -1.7526,-4.2418 0,-2.413 1.778,-4.1656 1.778,-1.778 4.2672,-1.778 2.5146,0 4.2672,1.778 1.778,1.7526 1.778,4.191 0,2.413 -1.7272,4.2164 -1.7272,1.8034 -4.191,1.8034 z m 5.334,-5.969 q 0,-2.159 -1.5494,-3.7338 -1.524,-1.5748 -3.6576,-1.5748 -2.1336,0 -3.7084,1.6002 -1.5494,1.5748 -1.5494,3.7084 0,2.1336 1.5494,3.7084 1.5748,1.5494 3.7084,1.5494 2.159,0 3.683,-1.5494 1.524,-1.5748 1.524,-3.7084 z"
       id="path348"
       style="font-size:25.4px;line-height:4.99999px;font-family:'Poiret One';-inkscape-font-specification:'Poiret One';letter-spacing:0px;word-spacing:0px;stroke-width:0.264583" />
  </g>
  <g
     inkscape:groupmode="layer"
     id="layer3"
     inkscape:label="Lenses"
     transform="translate(-160.50299,-61.919628)">
    <path
       d="m 161.3276,67.939428 c 0,1.439333 0.51648,2.683933 1.5494,3.7338 1.04987,1.032934 2.286,1.5494 3.70839,1.5494 1.43935,0 2.66701,-0.516466 3.683,-1.5494 1.016,-1.049867 1.524,-2.294467 1.524,-3.7338 0,-1.439333 -0.508,-2.675467 -1.524,-3.708401 -1.01599,-1.049866 -2.24365,-1.574799 -3.683,-1.574799 -1.42239,0 -2.65852,0.524933 -3.70839,1.574799 -1.03292,1.032934 -1.5494,2.269068 -1.5494,3.708401 z"
       id="path430-1-0-8"
       style="fill:#ffaaaa;stroke-width:1" />
    <path
       d="m 162.38188,67.939428 c 0,1.149321 0.41241,2.143145 1.23721,2.981474 0.83833,0.824806 1.82539,1.23721 2.96119,1.23721 1.14932,0 2.12963,-0.412404 2.94091,-1.23721 0.81128,-0.838329 1.21692,-1.832153 1.21692,-2.981474 0,-1.149321 -0.40564,-2.136385 -1.21692,-2.961192 -0.81128,-0.838328 -1.79159,-1.257492 -2.94091,-1.257492 -1.1358,0 -2.12286,0.419164 -2.96119,1.257492 -0.8248,0.824807 -1.23721,1.811871 -1.23721,2.961192 z"
       id="path430-72"
       style="fill:#d40000;stroke-width:0.798509" />
    <path
       d="m 162.98067,67.939428 c 0,0.984605 0.35331,1.835998 1.0599,2.554181 0.71818,0.706599 1.56378,1.059898 2.5368,1.059898 0.98461,0 1.82442,-0.353299 2.51943,-1.059898 0.69501,-0.718183 1.04252,-1.569576 1.04252,-2.554181 0,-0.984605 -0.34751,-1.830207 -1.04252,-2.536806 -0.69501,-0.718182 -1.53482,-1.077273 -2.51943,-1.077273 -0.97302,0 -1.81862,0.359091 -2.5368,1.077273 -0.70659,0.706599 -1.0599,1.552201 -1.0599,2.536806 z"
       id="path430-1-10"
       style="fill:#ffaaaa;stroke-width:0.68407" />
    <path
       d="m 164.00083,67.939428 c 0,0.703978 0.25261,1.312711 0.75781,1.826201 0.51349,0.505207 1.11808,0.757812 1.81378,0.757812 0.70398,0 1.30443,-0.252605 1.80136,-0.757812 0.49692,-0.51349 0.74538,-1.122223 0.74538,-1.826201 0,-0.703978 -0.24846,-1.308571 -0.74538,-1.813778 -0.49693,-0.51349 -1.09738,-0.770235 -1.80136,-0.770235 -0.6957,0 -1.30029,0.256745 -1.81378,0.770235 -0.5052,0.505207 -0.75781,1.1098 -0.75781,1.813778 z"
       id="path430-7-3"
       style="fill:#d40000;stroke-width:0.4891" />
    <path
       d="m 164.57744,67.939428 c 0,0.545362 0.1957,1.01694 0.58707,1.414734 0.39779,0.391378 0.86616,0.587067 1.40511,0.587067 0.54536,0 1.01053,-0.195689 1.39548,-0.587067 0.38496,-0.397794 0.57745,-0.869372 0.57745,-1.414734 0,-0.545362 -0.19249,-1.013733 -0.57745,-1.40511 -0.38495,-0.397794 -0.85012,-0.596691 -1.39548,-0.596691 -0.53895,0 -1.00732,0.198897 -1.40511,0.596691 -0.39137,0.391377 -0.58707,0.859748 -0.58707,1.40511 z"
       id="path430-1-8-8"
       style="fill:#ffaaaa;stroke-width:0.378899" />
    <path
       style="fill:#ffaaaa;stroke-width:0.246123;stroke-miterlimit:10;stroke-dashoffset:39.9975;paint-order:stroke markers fill"
       id="path600-3"
       sodipodi:type="arc"
       sodipodi:cx="166.56"
       sodipodi:cy="67.939423"
       sodipodi:rx="5.2323995"
       sodipodi:ry="5.2323995"
       sodipodi:start="0.25310884"
       sodipodi:end="1.3310633"
       sodipodi:arc-type="slice"
       d="m 171.62569,69.249694 a 5.2323995,5.2323995 0 0 1 -3.82329,3.772489 l -1.2424,-5.08276 z" />
  </g>
  <g
     inkscape:groupmode="layer"
     id="layer4"
     inkscape:label="Lever"
     transform="translate(-160.50299,-61.919628)" />
  <g
     inkscape:groupmode="layer"
     id="layer5"
     inkscape:label="Crossing"
     style="display:inline;fill:#ffffff"
     transform="translate(-160.50299,-61.919628)" />
  <g
     inkscape:groupmode="layer"
     id="layer7"
     inkscape:label="Shunts"
     style="display:inline;fill:#d4aa00"
     transform="translate(-160.50299,-61.919628)" />
</svg>
